<svg xmlns="http://www.w3.org/2000/svg" xmlns:xlink="http://www.w3.org/1999/xlink" width="64" height="64" viewBox="0 0 64 64">
  <defs>
    <clipPath id="clip-path">
      <rect id="Rectangle_3337" data-name="Rectangle 3337" width="25" height="34.35" fill="none"/>
    </clipPath>
  </defs>
  <g id="Group_24151" data-name="Group 24151" transform="translate(-399 -175)">
    <rect id="Rectangle_3324" data-name="Rectangle 3324" width="64" height="64" rx="16" transform="translate(399 175)"/>
    <g id="Group_24150" data-name="Group 24150" transform="matrix(0.53, -0.848, 0.848, 0.53, 409.812, 208.499)">
      <g id="Group_24149" data-name="Group 24149" clip-path="url(#clip-path)">
        <path id="Path_9923" data-name="Path 9923" d="M23.118,1.84C23.6,3.857,18.953,6.7,12.733,8.2S1.078,9.27.593,7.252,4.758,2.388,10.978.893,22.634-.178,23.118,1.84" transform="translate(-0.441 0)" fill="#d5c2ff"/>
        <path id="Path_9924" data-name="Path 9924" d="M9.087,28.542c-2.643,0-4.724-.51-5.332-1.672a.309.309,0,0,1,.2-.442.3.3,0,0,1,.34.15c.74,1.433,5.336,1.969,11.483.491,6.121-1.471,9.964-4.019,10.005-5.633a.316.316,0,0,1,.235-.309h0a.308.308,0,0,1,.38.3c-.023,2.344-5.179,4.966-10.478,6.24a30.3,30.3,0,0,1-6.837.875" transform="translate(-2.941 -16.694)" fill="#d5c2ff"/>
        <path id="Path_9925" data-name="Path 9925" d="M25.828,114.987c-.463,2.023-5.893,2.506-12.129,1.08s-10.917-4.222-10.454-6.245,5.893-2.506,12.129-1.08,10.917,4.222,10.454,6.244" transform="translate(-2.54 -85.321)" fill="#d5c2ff"/>
        <path id="Path_9926" data-name="Path 9926" d="M17.144,136.649a30.3,30.3,0,0,1-6.6-.814,27.474,27.474,0,0,1-7.7-2.885C1.017,131.856.024,130.72,0,129.708a.307.307,0,0,1,.377-.3.3.3,0,0,1,.237.284c.011.778.92,1.758,2.549,2.731a26.863,26.863,0,0,0,7.518,2.813,26.846,26.846,0,0,0,7.994.734c1.89-.168,3.135-.656,3.483-1.352a.3.3,0,0,1,.338-.153.307.307,0,0,1,.209.435c-.461.9-1.849,1.493-3.975,1.682-.5.045-1.032.067-1.587.067" transform="translate(0 -102.3)" fill="#d5c2ff"/>
        <path id="Path_9927" data-name="Path 9927" d="M31.155,61.093c.05,2.074-5.095,3.879-11.49,4.032s-11.62-1.4-11.67-3.479,5.095-3.88,11.49-4.032,11.62,1.4,11.67,3.479" transform="translate(-6.32 -45.54)" fill="#d5c2ff"/>
        <path id="Path_9928" data-name="Path 9928" d="M19.039,91.044c-5.192,0-10.342-1.2-10.931-3.352a.307.307,0,0,1,.291-.385h0a.316.316,0,0,1,.306.239c.455,1.549,4.831,3.02,11.116,2.874s10.587-1.833,10.966-3.4a.316.316,0,0,1,.294-.253h0a.308.308,0,0,1,.308.374c-.515,2.287-6.108,3.766-11.556,3.9-.265.006-.533.01-.8.01" transform="translate(-6.401 -68.593)" fill="#d5c2ff"/>
      </g>
    </g>
  </g>
</svg>
